<?xml version="1.0" standalone="no"?>
<!DOCTYPE svg PUBLIC "-//W3C//DTD SVG 20010904//EN"
 "http://www.w3.org/TR/2001/REC-SVG-20010904/DTD/svg10.dtd">
<svg version="1.0" xmlns="http://www.w3.org/2000/svg"
 width="366.000000pt" height="366.000000pt" viewBox="0 0 366.000000 366.000000"
 preserveAspectRatio="xMidYMid meet">
<metadata>
Created by potrace 1.11, written by Peter Selinger 2001-2013
</metadata>
<g transform="translate(0.000000,366.000000) scale(0.100000,-0.100000)"
fill="#000000" stroke="none">
<path d="M1556 3595 c-664 -108 -1213 -574 -1420 -1208 -70 -213 -80 -283 -80
-557 0 -274 10 -344 80 -557 175 -536 601 -962 1137 -1137 213 -70 283 -80
557 -80 274 0 344 10 557 80 536 175 962 601 1137 1137 70 213 80 283 80 557
0 217 -2 257 -22 348 -79 362 -241 662 -491 913 -250 249 -553 412 -908 490
-129 28 -491 36 -627 14z m616 -84 c225 -49 476 -159 658 -288 121 -87 306
-272 393 -393 81 -115 196 -341 237 -468 64 -199 74 -274 74 -532 0 -258 -10
-333 -74 -532 -41 -127 -156 -353 -237 -468 -87 -121 -272 -306 -393 -393
-115 -81 -341 -196 -468 -237 -199 -64 -274 -74 -532 -74 -258 0 -333 10 -532
74 -127 41 -353 156 -468 237 -121 87 -306 272 -393 393 -81 115 -196 341
-237 468 -64 199 -74 274 -74 532 0 206 2 248 22 337 35 159 76 276 152 428
90 181 178 302 320 445 260 260 585 426 946 485 134 22 478 14 606 -14z"/>
<path d="M1826 3289 c-13 -178 -17 -299 -8 -299 13 0 22 50 22 116 l0 54 55 0
c30 0 55 5 55 10 0 6 -22 10 -49 10 -28 0 -52 3 -54 8 -3 4 -3 37 0 75 l6 67
53 0 c30 0 54 5 54 10 0 6 -15 10 -34 10 -18 0 -47 3 -64 6 l-30 6 -6 -73z"/>
<path d="M1655 3313 c17 -117 32 -238 30 -241 -2 -2 -36 55 -77 127 -40 72
-76 131 -80 131 -5 0 -8 -13 -8 -28 0 -36 40 -325 46 -331 15 -15 15 25 1 136
-9 70 -15 128 -13 130 2 2 31 -45 64 -104 70 -125 88 -150 97 -142 11 12 -39
352 -53 357 -9 3 -11 -6 -7 -35z"/>
<path d="M1753 3223 c4 -71 7 -152 7 -180 0 -29 5 -53 10 -53 6 0 10 41 10
103 0 139 -11 257 -23 257 -7 0 -8 -44 -4 -127z"/>
<path d="M2052 3305 c-18 -22 -62 -215 -62 -268 0 -30 45 -67 83 -67 49 0 66
25 88 136 28 137 28 182 0 206 -34 27 -85 24 -109 -7z m90 -12 c10 -9 18 -28
18 -43 0 -38 -28 -189 -41 -222 -19 -47 -82 -49 -99 -2 -14 35 31 253 55 271
25 17 45 17 67 -4z"/>
<path d="M1407 3303 c-4 -4 -5 -77 -1 -162 4 -104 3 -153 -3 -146 -6 6 -47 65
-92 133 -45 67 -86 120 -90 117 -5 -3 11 -67 35 -142 24 -76 49 -155 55 -177
7 -26 14 -35 21 -28 6 6 0 40 -20 103 -16 52 -33 105 -37 119 -4 14 29 -27 72
-90 l78 -115 3 140 3 140 38 -118 c21 -65 42 -117 47 -115 13 4 12 5 -41 178
-49 159 -56 176 -68 163z"/>
<path d="M2275 3246 c-26 -40 -85 -214 -85 -251 0 -69 81 -102 127 -52 25 26
93 216 93 258 0 42 -32 69 -80 69 -31 0 -43 -5 -55 -24z m97 -13 c25 -22 23
-36 -18 -149 -41 -115 -58 -144 -82 -144 -28 0 -62 29 -62 53 0 31 68 218 87
240 20 22 51 22 75 0z"/>
<path d="M2431 3054 c-45 -86 -81 -159 -81 -162 0 -10 39 -33 70 -42 56 -16
82 8 145 134 51 99 58 119 49 143 -8 23 -76 82 -96 83 -3 0 -43 -70 -87 -156z
m157 60 c2 -21 -13 -59 -50 -129 -57 -106 -72 -121 -109 -112 -55 15 -55 16
21 166 l72 142 31 -19 c23 -13 33 -27 35 -48z"/>
<path d="M1042 3154 c-36 -25 -29 -71 28 -184 56 -111 81 -140 122 -140 36 0
78 40 78 74 0 28 -93 219 -121 247 -23 23 -76 25 -107 3z m90 -21 c30 -34 121
-222 115 -237 -3 -8 -17 -22 -31 -32 -24 -15 -28 -15 -50 -1 -25 17 -126 203
-126 233 0 46 62 71 92 37z"/>
<path d="M2375 2633 c-106 -126 -291 -362 -316 -402 -33 -51 -37 -94 -14 -147
8 -20 12 -41 8 -48 -4 -6 -56 -82 -116 -169 l-109 -158 -114 166 -114 166 16
50 c25 75 14 155 -36 255 -97 198 -376 370 -449 278 -17 -21 -21 -41 -21 -96
0 -164 86 -348 208 -443 65 -51 126 -75 191 -75 l46 0 120 -170 c66 -93 120
-172 120 -175 0 -2 -49 -71 -110 -152 -65 -88 -145 -182 -199 -233 -226 -215
-226 -215 -226 -246 0 -42 18 -101 37 -120 13 -13 27 -15 71 -9 30 4 61 9 69
12 22 9 59 80 107 207 49 129 98 220 212 390 l73 109 91 -139 c99 -151 158
-265 215 -417 48 -127 66 -148 136 -157 79 -11 95 -1 115 65 22 76 11 99 -90
188 -146 129 -220 210 -329 356 -107 144 -107 144 -91 170 10 14 64 92 121
172 l105 147 54 4 c71 6 96 25 167 129 57 83 240 388 253 422 19 50 -26 -5
-170 -208 -139 -198 -176 -241 -176 -204 0 5 70 111 155 235 86 125 154 231
152 237 -2 6 -77 -92 -168 -218 -152 -212 -200 -268 -187 -218 3 10 74 119
158 241 84 123 149 226 146 229 -9 9 -4 15 -176 -225 -84 -117 -157 -215 -162
-218 -5 -4 -13 -2 -18 2 -4 5 61 108 146 229 84 121 153 223 153 228 2 18 -18
4 -54 -40z"/>
<path d="M650 1063 c-63 -42 -109 -78 -103 -80 7 -3 33 10 59 28 l47 32 19
-26 c26 -36 79 -37 113 -2 14 13 25 32 25 41 0 13 -36 84 -43 84 -1 0 -54 -35
-117 -77z m130 23 c17 -32 8 -51 -31 -72 -32 -16 -33 -16 -57 11 l-23 28 43
28 c24 16 46 29 49 29 3 0 11 -11 19 -24z"/>
<path d="M2880 1125 c0 -3 13 -32 30 -65 l30 -59 -72 6 c-47 4 -69 3 -65 -4 4
-6 38 -13 77 -15 59 -5 79 -11 125 -42 58 -38 65 -41 65 -27 0 5 -23 24 -51
41 -40 27 -57 46 -85 101 -19 38 -39 69 -44 69 -6 0 -10 -2 -10 -5z"/>
<path d="M734 949 c-54 -45 -101 -84 -103 -86 -2 -2 -1 -6 2 -9 4 -4 27 10 53
31 l47 39 18 -23 c27 -33 24 -45 -23 -85 -23 -20 -39 -39 -35 -42 11 -11 87
57 87 77 0 13 7 19 21 19 12 0 37 16 56 35 39 39 38 62 -1 103 l-23 23 -99
-82z m120 32 c22 -24 14 -55 -19 -77 -28 -18 -60 -11 -75 16 -8 15 -3 24 27
49 44 36 45 37 67 12z"/>
<path d="M1560 935 l0 -75 33 1 c29 1 30 2 7 8 -17 5 -26 15 -28 33 -3 22 1
27 25 31 l28 4 -28 2 c-25 1 -28 5 -25 28 2 19 10 29 28 34 23 6 22 7 -7 8
l-33 1 0 -75z"/>
<path d="M1637 1004 c-4 -4 -7 -20 -7 -36 0 -21 7 -32 25 -40 17 -8 25 -18 23
-32 -4 -29 -26 -31 -38 -4 l-10 23 3 -25 c1 -19 8 -25 27 -25 21 0 26 5 28 31
2 25 -2 33 -23 42 -19 9 -25 18 -23 34 4 30 26 34 38 6 l10 -23 -3 25 c-2 25
-34 40 -50 24z"/>
<path d="M1713 1003 c14 -4 17 -17 19 -76 l2 -72 5 69 c5 57 10 70 26 77 14 5
6 7 -25 7 -25 0 -37 -2 -27 -5z"/>
<path d="M1857 1003 c-4 -3 -7 -13 -7 -22 1 -13 2 -13 11 2 6 9 14 15 20 12
15 -10 10 -45 -11 -72 -31 -40 -27 -63 13 -62 30 2 30 2 5 6 -31 5 -36 24 -12
44 25 20 36 57 24 80 -11 19 -31 25 -43 12z"/>
<path d="M1927 1003 c-4 -3 -7 -35 -7 -70 0 -50 4 -65 16 -70 24 -9 44 23 44
70 0 58 -28 96 -53 70z m31 -72 c-2 -28 -7 -52 -13 -54 -11 -2 -19 87 -10 111
11 31 26 -5 23 -57z"/>
<path d="M1996 994 c-8 -22 -8 -26 4 -19 6 4 11 -18 11 -57 1 -35 4 -51 6 -37
3 22 8 25 29 21 13 -2 24 -10 24 -18 0 -7 5 -16 10 -19 6 -4 10 22 10 69 0 42
-4 76 -8 76 -8 0 -42 -64 -42 -78 0 -4 7 2 15 12 15 19 15 19 15 -2 0 -17 -5
-21 -25 -20 -22 2 -25 7 -25 45 0 43 -12 57 -24 27z"/>
<path d="M2747 942 c-15 -15 -27 -31 -27 -34 0 -11 201 -181 207 -174 3 3 -15
24 -41 47 l-47 42 22 23 c30 31 38 30 86 -11 22 -19 43 -32 47 -28 10 10 -67
72 -91 73 -16 0 -25 8 -29 25 -7 29 -53 65 -81 65 -11 0 -31 -13 -46 -28z m90
-14 c28 -26 29 -49 3 -73 -20 -18 -21 -18 -53 11 -17 16 -36 32 -41 36 -14 11
23 48 47 48 12 0 31 -10 44 -22z"/>
<path d="M822 827 l-92 -93 33 -32 c43 -42 60 -41 19 1 l-32 33 40 39 40 39
28 -27 c40 -39 52 -33 14 6 l-32 33 40 39 40 39 28 -27 c41 -40 52 -33 12 8
-19 19 -37 35 -40 35 -3 0 -47 -42 -98 -93z"/>
<path d="M2652 849 l-42 -40 41 -97 c23 -53 44 -101 47 -106 7 -12 -19 7 -106
78 -40 32 -76 56 -79 52 -8 -8 -8 -9 112 -104 55 -44 102 -76 103 -71 2 5 -19
64 -47 130 -28 66 -51 123 -51 127 1 4 43 -38 95 -93 l94 -100 35 34 c20 19
33 37 31 40 -3 2 -19 -9 -36 -25 l-30 -29 -38 44 -38 45 28 24 c42 34 36 48
-6 16 l-36 -27 -34 33 c-42 40 -43 52 -10 74 24 16 34 36 18 36 -5 0 -27 -19
-51 -41z"/>
<path d="M969 808 c-108 -135 -139 -177 -130 -182 5 -3 33 26 62 64 29 38 54
68 56 67 1 -2 -12 -41 -31 -88 -19 -46 -30 -85 -25 -87 5 -2 37 18 71 44 101
76 94 72 78 49 -8 -12 -34 -46 -57 -76 -42 -55 -52 -74 -34 -67 15 5 170 212
165 220 -3 4 -46 -23 -97 -61 -51 -38 -93 -68 -95 -66 -1 1 16 50 39 109 22
59 39 109 36 112 -2 2 -20 -15 -38 -38z"/>
<path d="M1076 619 c-38 -60 -66 -113 -62 -116 8 -8 4 -14 129 185 17 26 23
42 15 42 -7 0 -44 -50 -82 -111z"/>
<path d="M1135 635 c-79 -144 -82 -168 -22 -189 36 -13 48 -1 112 117 60 109
59 107 46 107 -5 0 -32 -42 -60 -94 -58 -107 -75 -125 -99 -109 -30 18 -25 41
31 143 31 55 51 102 47 105 -5 3 -30 -33 -55 -80z"/>
<path d="M2480 715 c0 -11 143 -225 151 -225 14 0 12 4 -62 120 -60 93 -89
127 -89 105z"/>
<path d="M2375 661 c-6 -4 -31 -16 -57 -26 -27 -10 -48 -21 -48 -25 0 -7 84
-200 101 -232 8 -16 12 -16 47 -2 42 18 58 31 50 40 -3 3 -20 -2 -37 -10 -16
-9 -34 -16 -39 -16 -9 0 -47 88 -41 94 2 2 20 12 39 22 25 13 30 19 18 22 -9
2 -26 -2 -37 -7 -30 -17 -36 -14 -54 24 -24 50 -22 57 22 81 l39 22 62 -114
c34 -63 64 -114 66 -114 11 0 83 41 89 50 10 16 -18 12 -43 -6 -13 -9 -28 -14
-35 -11 -7 2 -38 52 -70 111 -32 58 -59 106 -61 106 -1 0 -6 -4 -11 -9z"/>
<path d="M1246 531 c-25 -66 -46 -125 -46 -131 0 -27 20 6 45 75 15 41 29 75
32 75 2 0 0 -43 -3 -95 -4 -52 -4 -95 -1 -95 3 0 28 32 57 70 52 70 68 86 55
53 -39 -101 -53 -143 -44 -143 5 0 13 10 18 23 5 12 27 68 49 124 22 57 37
105 32 108 -4 3 -38 -36 -75 -85 -37 -50 -69 -90 -72 -90 -5 0 1 78 13 183 3
27 2 47 -4 47 -5 0 -30 -54 -56 -119z"/>
<path d="M2164 580 c-22 -9 -22 -9 19 -137 22 -70 41 -129 42 -131 1 -2 21 5
44 14 26 10 43 24 47 38 6 26 -42 184 -64 209 -16 18 -53 21 -88 7z m81 -27
c18 -46 55 -158 55 -169 0 -18 -29 -44 -49 -44 -13 0 -25 25 -49 105 -18 59
-30 110 -27 115 11 17 62 11 70 -7z"/>
<path d="M1534 523 c-4 -21 -14 -78 -24 -128 -9 -49 -15 -94 -12 -99 7 -13 19
21 27 78 6 36 11 46 24 42 51 -14 71 -15 71 -6 0 5 -12 12 -27 16 -55 12 -55
11 -48 57 10 58 12 60 56 53 46 -7 53 9 8 18 -60 12 -68 9 -75 -31z"/>
<path d="M1965 541 c-18 -4 -29 -12 -28 -21 1 -8 7 -55 13 -105 17 -142 18
-145 49 -145 46 0 71 26 71 73 -1 89 -18 171 -41 190 -12 9 -24 16 -28 16 -3
-1 -19 -4 -36 -8z m59 -33 c14 -22 33 -156 27 -188 -4 -19 -20 -30 -47 -30
-19 0 -22 10 -35 115 -10 77 -11 116 -4 119 24 10 46 4 59 -16z"/>
<path d="M1676 527 c-14 -10 -21 -36 -28 -111 -13 -124 -5 -146 51 -146 53 0
60 15 68 138 5 84 3 100 -11 115 -21 20 -55 22 -80 4z m68 -116 c0 -89 -3
-105 -19 -117 -24 -18 -30 -18 -50 3 -15 14 -16 29 -10 102 9 104 17 123 53
119 l27 -3 -1 -104z"/>
<path d="M1812 518 c-19 -19 -16 -207 4 -236 19 -27 64 -29 87 -4 21 23 24
183 4 222 -14 28 -73 40 -95 18z m72 -17 c24 -27 19 -199 -6 -215 -13 -8 -23
-8 -35 0 -26 16 -39 178 -18 211 19 28 36 29 59 4z"/>
</g>
</svg>
